<svg width="173" height="49" viewBox="0 0 173 49" fill="none" xmlns="http://www.w3.org/2000/svg">
<path fill-rule="evenodd" clip-rule="evenodd" d="M32 25C32 33.8366 24.8366 41 16 41C7.16344 41 0 33.8366 0 25C0 16.1634 7.16344 9 16 9C24.8366 9 32 16.1634 32 25ZM21.9733 21.0615L21.9733 21.0856V21.0616H16.6363C16.5861 20.4007 16.0339 19.88 15.3601 19.88C14.6531 19.88 14.0801 20.4531 14.0801 21.16C14.0801 21.7942 14.5413 22.3207 15.1466 22.4223V27.3631C11.3764 27.3631 8.32 24.5418 8.32 21.0615C8.32 17.5813 11.3764 14.76 15.1467 14.76C18.9169 14.76 21.9733 17.5813 21.9733 21.0615ZM10.0267 28.9147L10.0267 28.9385C10.0267 32.4187 13.0831 35.24 16.8534 35.24C20.6236 35.24 23.68 32.4187 23.68 28.9385C23.68 25.4582 20.6236 22.6369 16.8534 22.6369L16.8534 27.5777C17.4588 27.6793 17.92 28.2058 17.92 28.84C17.92 29.5469 17.3469 30.12 16.64 30.12C15.9662 30.12 15.414 29.5993 15.3637 28.9384H10.0267V28.9147Z" fill="black"/>
<path d="M49.056 17.696C46.7307 17.696 45.568 18.464 45.568 20C45.568 20.6827 45.856 21.2053 46.432 21.568C47.008 21.9307 48.352 22.4533 50.464 23.136C52.5973 23.8187 54.0907 24.5973 54.944 25.472C55.7973 26.3253 56.224 27.648 56.224 29.44C56.224 31.7227 55.5307 33.4507 54.144 34.624C52.7573 35.7973 50.944 36.384 48.704 36.384C47.04 36.384 45.0027 36.128 42.592 35.616L41.44 35.392L41.888 31.968C44.7467 32.352 46.9333 32.544 48.448 32.544C50.7093 32.544 51.84 31.6053 51.84 29.728C51.84 29.0453 51.5733 28.512 51.04 28.128C50.528 27.744 49.4933 27.328 47.936 26.88C45.4613 26.176 43.712 25.344 42.688 24.384C41.6853 23.4027 41.184 22.048 41.184 20.32C41.184 18.144 41.8453 16.5227 43.168 15.456C44.4907 14.3893 46.304 13.856 48.608 13.856C50.1867 13.856 52.192 14.0693 54.624 14.496L55.776 14.72L55.424 18.208C52.416 17.8667 50.2933 17.696 49.056 17.696ZM62.9103 29.824C62.9316 30.8053 63.1876 31.52 63.6783 31.968C64.1903 32.3947 64.9156 32.608 65.8542 32.608C67.8383 32.608 69.6089 32.544 71.1663 32.416L72.0623 32.32L72.1263 35.488C69.6729 36.0853 67.4543 36.384 65.4703 36.384C63.0596 36.384 61.3103 35.744 60.2223 34.464C59.1343 33.184 58.5903 31.104 58.5903 28.224C58.5903 22.4853 60.9476 19.616 65.6623 19.616C70.3129 19.616 72.6383 22.0267 72.6383 26.848L72.3183 29.824H62.9103ZM68.4143 26.56C68.4143 25.28 68.2116 24.3947 67.8063 23.904C67.4009 23.392 66.6863 23.136 65.6623 23.136C64.6596 23.136 63.9449 23.4027 63.5183 23.936C63.1129 24.448 62.8996 25.3227 62.8783 26.56H68.4143ZM87.9588 24.992V31.648C88.0014 32.16 88.0868 32.5227 88.2148 32.736C88.3428 32.928 88.6094 33.0667 89.0148 33.152L88.8868 36.384C87.7988 36.384 86.9241 36.3093 86.2628 36.16C85.6228 36.0107 84.9721 35.712 84.3108 35.264C82.7748 36.0107 81.2068 36.384 79.6068 36.384C76.3001 36.384 74.6468 34.6347 74.6468 31.136C74.6468 29.4293 75.1054 28.224 76.0228 27.52C76.9401 26.7947 78.3481 26.368 80.2468 26.24L83.6708 25.984V24.992C83.6708 24.3307 83.5214 23.8827 83.2228 23.648C82.9241 23.392 82.4441 23.264 81.7828 23.264L75.7668 23.52L75.6388 20.544C77.9214 19.9253 80.0868 19.616 82.1348 19.616C84.2041 19.616 85.6868 20.0427 86.5828 20.896C87.5001 21.7493 87.9588 23.1147 87.9588 24.992ZM80.7588 29.216C79.5641 29.3227 78.9668 29.9627 78.9668 31.136C78.9668 32.3093 79.4894 32.896 80.5348 32.896C81.3454 32.896 82.2308 32.768 83.1908 32.512L83.6708 32.384V28.96L80.7588 29.216ZM96.3345 36H92.0465V20H96.3025V20.896C97.7745 20.0427 99.0332 19.616 100.079 19.616C101.807 19.616 103.14 20.1173 104.079 21.12C106.041 20.1173 107.833 19.616 109.455 19.616C111.567 19.616 113.028 20.2347 113.839 21.472C114.671 22.688 115.087 24.64 115.087 27.328V36H110.799V27.456C110.799 26.0907 110.649 25.088 110.351 24.448C110.052 23.7867 109.455 23.456 108.559 23.456C107.876 23.456 107.044 23.6053 106.062 23.904L105.583 24.064C105.668 25.664 105.711 26.88 105.711 27.712V36H101.423V27.776C101.423 26.1973 101.284 25.088 101.007 24.448C100.729 23.7867 100.121 23.456 99.1825 23.456C98.3505 23.456 97.5292 23.6053 96.7185 23.904L96.3345 24.032V36ZM119.082 36V13.6H123.37V36H119.082ZM131.035 29.824C131.057 30.8053 131.313 31.52 131.803 31.968C132.315 32.3947 133.041 32.608 133.979 32.608C135.963 32.608 137.734 32.544 139.291 32.416L140.187 32.32L140.251 35.488C137.798 36.0853 135.579 36.384 133.595 36.384C131.185 36.384 129.435 35.744 128.347 34.464C127.259 33.184 126.715 31.104 126.715 28.224C126.715 22.4853 129.073 19.616 133.787 19.616C138.438 19.616 140.763 22.0267 140.763 26.848L140.443 29.824H131.035ZM136.539 26.56C136.539 25.28 136.337 24.3947 135.931 23.904C135.526 23.392 134.811 23.136 133.787 23.136C132.785 23.136 132.07 23.4027 131.643 23.936C131.238 24.448 131.025 25.3227 131.003 26.56H136.539ZM155.316 24C152.67 23.6587 150.814 23.488 149.748 23.488C148.702 23.488 148.02 23.584 147.7 23.776C147.401 23.968 147.252 24.2773 147.252 24.704C147.252 25.1093 147.454 25.3973 147.86 25.568C148.286 25.7173 149.353 25.952 151.06 26.272C152.788 26.5707 154.014 27.072 154.74 27.776C155.465 28.48 155.828 29.6213 155.828 31.2C155.828 34.656 153.684 36.384 149.396 36.384C147.988 36.384 146.281 36.192 144.276 35.808L143.252 35.616L143.38 32.032C146.025 32.3733 147.86 32.544 148.884 32.544C149.929 32.544 150.633 32.448 150.996 32.256C151.38 32.0427 151.572 31.7333 151.572 31.328C151.572 30.9227 151.369 30.624 150.964 30.432C150.58 30.24 149.556 30.0053 147.892 29.728C146.249 29.4507 145.022 28.9813 144.212 28.32C143.401 27.6587 142.996 26.4853 142.996 24.8C142.996 23.0933 143.572 21.8133 144.724 20.96C145.876 20.0853 147.358 19.648 149.172 19.648C150.43 19.648 152.148 19.8507 154.324 20.256L155.38 20.448L155.316 24ZM170.41 24C167.764 23.6587 165.908 23.488 164.842 23.488C163.796 23.488 163.114 23.584 162.794 23.776C162.495 23.968 162.346 24.2773 162.346 24.704C162.346 25.1093 162.548 25.3973 162.954 25.568C163.38 25.7173 164.447 25.952 166.154 26.272C167.882 26.5707 169.108 27.072 169.834 27.776C170.559 28.48 170.922 29.6213 170.922 31.2C170.922 34.656 168.778 36.384 164.49 36.384C163.082 36.384 161.375 36.192 159.37 35.808L158.346 35.616L158.474 32.032C161.119 32.3733 162.954 32.544 163.978 32.544C165.023 32.544 165.727 32.448 166.09 32.256C166.474 32.0427 166.666 31.7333 166.666 31.328C166.666 30.9227 166.463 30.624 166.058 30.432C165.674 30.24 164.65 30.0053 162.986 29.728C161.343 29.4507 160.116 28.9813 159.306 28.32C158.495 27.6587 158.09 26.4853 158.09 24.8C158.09 23.0933 158.666 21.8133 159.818 20.96C160.97 20.0853 162.452 19.648 164.266 19.648C165.524 19.648 167.242 19.8507 169.418 20.256L170.474 20.448L170.41 24Z" fill="black"/>
</svg>
